<svg width="70" height="70" viewBox="0 0 70 70" fill="none" xmlns="http://www.w3.org/2000/svg">
<circle cx="35" cy="35" r="35" fill="#ABFAA9" fill-opacity="0.5"/>
<path d="M27.8522 48.48C27.7178 48.1843 27.5296 47.7542 27.2877 47.1898C27.0458 46.6253 26.7635 45.9802 26.441 45.2544C26.1453 44.5018 25.8093 43.6954 25.433 42.8352C25.0835 41.9482 24.7206 41.0342 24.3443 40.0934H14.0224L10.5549 48.48H6.20032L19.2237 17.8771C19.385 18.2534 19.6672 18.9389 20.0704 19.9334C20.5005 20.928 20.9978 22.1242 21.5622 23.5219C22.1536 24.8928 22.7987 26.425 23.4976 28.1184C24.2234 29.785 24.9491 31.4784 25.6749 33.1987C26.4275 34.919 27.1533 36.6125 27.8522 38.279C28.5779 39.9456 29.2365 41.4778 29.8278 42.8755C30.4192 44.2733 30.9165 45.4694 31.3197 46.464C31.7498 47.4317 32.0454 48.1037 32.2067 48.48H27.8522ZM15.5546 36.384H22.8525C22.4762 35.497 22.1133 34.6502 21.7638 33.8438C21.4413 33.0106 21.1322 32.2579 20.8365 31.5859C20.5677 30.887 20.3258 30.2822 20.1107 29.7715C19.8957 29.2608 19.7344 28.8576 19.6269 28.5619C19.6 28.5082 19.5328 28.32 19.4253 27.9974C19.3446 27.6749 19.2774 27.3792 19.2237 27.1104C19.1699 27.3792 19.0893 27.6749 18.9818 27.9974C18.8742 28.32 18.807 28.5082 18.7802 28.5619L15.5546 36.384ZM35.8541 48.48V19.248H40.249V31.6666H54.8852V19.248H59.3203C59.3203 19.5974 59.3203 20.256 59.3203 21.2237C59.3203 22.1645 59.3203 23.2934 59.3203 24.6106C59.3203 25.9277 59.3203 27.3926 59.3203 29.0054C59.3203 30.5914 59.3069 32.2176 59.28 33.8842C59.28 35.5238 59.28 37.1501 59.28 38.7629C59.28 40.3488 59.28 41.8003 59.28 43.1174C59.28 44.4346 59.28 45.577 59.28 46.5446C59.28 47.4854 59.28 48.1306 59.28 48.48H54.8852V35.8598H40.249V48.48H35.8541Z" fill="black"/>
<rect width="70" height="70" rx="11" fill="#ABFAA9" fill-opacity="0.43"/>
</svg>
